<svg width="144" height="49" viewBox="0 0 144 49" fill="none" xmlns="http://www.w3.org/2000/svg">
<path d="M111.5 0H122.562L96.5 44H86L111.5 0Z" fill="#D2D2D2"/>
<path d="M25.6706 0H35L10 44H0L25.6706 0Z" fill="#D2D2D2"/>
<path d="M35 0H111.5L86 44H10L35 0Z" fill="#7D7D7D" fill-opacity="0.5"/>
<path d="M25.64 33.72C27.12 34.6 30.08 35.4 32.92 35.4C39.88 35.4 43.16 31.64 43.16 27.32C43.16 23.44 40.88 21.08 36.2 19.32C32.6 17.92 31.04 16.96 31.04 14.88C31.04 13.32 32.4 11.64 35.52 11.64C38.04 11.64 39.92 12.4 40.88 12.92L42.08 8.96C40.68 8.24 38.52 7.6 35.6 7.6C29.76 7.6 26.08 10.96 26.08 15.36C26.08 19.24 28.92 21.6 33.36 23.2C36.8 24.44 38.16 25.64 38.16 27.68C38.16 29.88 36.4 31.36 33.24 31.36C30.72 31.36 28.32 30.56 26.72 29.64L25.64 33.72ZM48.0659 11.12V15.52H45.2659V19.2H48.0659V28.36C48.0659 30.92 48.5459 32.68 49.5859 33.8C50.5059 34.8 52.0259 35.4 53.8259 35.4C55.3859 35.4 56.6659 35.2 57.3859 34.92L57.3059 31.16C56.8659 31.28 56.2259 31.4 55.3859 31.4C53.5059 31.4 52.8659 30.16 52.8659 27.8V19.2H57.5459V15.52H52.8659V9.96L48.0659 11.12ZM76.6494 35C76.4494 33.8 76.3694 32.08 76.3694 30.32V23.28C76.3694 19.04 74.5694 15.08 68.3294 15.08C65.2494 15.08 62.7294 15.92 61.2894 16.8L62.2494 20C63.5694 19.16 65.5694 18.56 67.4894 18.56C70.9294 18.56 71.4494 20.68 71.4494 21.96V22.28C64.2494 22.24 59.8894 24.72 59.8894 29.64C59.8894 32.6 62.0894 35.44 66.0094 35.44C68.5294 35.44 70.5694 34.36 71.7694 32.84H71.8894L72.2094 35H76.6494ZM71.5694 28.16C71.5694 28.48 71.5294 28.88 71.4094 29.24C70.9694 30.64 69.5294 31.92 67.5694 31.92C66.0094 31.92 64.7694 31.04 64.7694 29.12C64.7694 26.16 68.0894 25.4 71.5694 25.48V28.16ZM99.0819 35V19.2H103.282V15.52H99.0419V14.52C99.0419 12.12 99.8419 10.08 102.282 10.08C103.202 10.08 103.842 10.24 104.402 10.44L104.722 6.64C103.962 6.36 102.922 6.16 101.602 6.16C99.8819 6.16 97.9619 6.68 96.5219 8.04C94.8019 9.64 94.1219 12.16 94.1219 14.68V15.52H87.0019V14.76C87.0019 12.32 87.6819 10.44 89.9219 10.44C90.5619 10.44 91.2019 10.6 91.6819 10.8L92.4819 7.16C91.8819 6.88 90.8419 6.6 89.8019 6.6C87.3219 6.6 85.5219 7.36 84.3219 8.6C82.7219 10.2 82.1219 12.52 82.1219 15.04V15.52H79.4819V19.2H82.1219V35H87.0419V19.2H94.1219V35H99.0819Z" fill="#FDFDFD"/>
<path d="M106.367 35H111.327V6.6H106.367V35ZM121.6 35V15.52H116.64V35H121.6ZM119.12 7.4C117.48 7.4 116.36 8.56 116.36 10.08C116.36 11.56 117.44 12.72 119.08 12.72C120.8 12.72 121.88 11.56 121.88 10.08C121.84 8.56 120.8 7.4 119.12 7.4ZM124.674 15.52L131.194 25.08L124.434 35H129.874L132.114 31.12C132.754 30.04 133.314 29.08 133.874 27.96H133.954C134.514 29.04 135.074 30.08 135.714 31.12L138.114 35H143.674L137.034 24.88L143.554 15.52H138.194L136.034 19.12C135.474 20.12 134.914 21.12 134.354 22.2H134.234C133.674 21.2 133.114 20.24 132.474 19.2L130.154 15.52H124.674Z" fill="#313131"/>
</svg>
